<?xml version="1.0" encoding="UTF-8" standalone="no"?>
<!-- Created with Inkscape (http://www.inkscape.org/) -->

<svg
   xmlns:dc="http://purl.org/dc/elements/1.1/"
   xmlns:cc="http://creativecommons.org/ns#"
   xmlns:rdf="http://www.w3.org/1999/02/22-rdf-syntax-ns#"
   xmlns:svg="http://www.w3.org/2000/svg"
   xmlns="http://www.w3.org/2000/svg"
   xmlns:xlink="http://www.w3.org/1999/xlink"
   xmlns:sodipodi="http://sodipodi.sourceforge.net/DTD/sodipodi-0.dtd"
   xmlns:inkscape="http://www.inkscape.org/namespaces/inkscape"
   width="77mm"
   height="299mm"
   id="svg2"
   version="1.1"
   inkscape:version="0.48.2 r9819"
   sodipodi:docname="setup_1.svg"
   inkscape:export-filename="C:\Users\carattino\Documents\Paper_Writing\KCN\Paper\Figures\01_Setup\setup_1.png"
   inkscape:export-xdpi="600"
   inkscape:export-ydpi="600">
  <defs
     id="defs4">
    <marker
       inkscape:stockid="Arrow1Lstart"
       orient="auto"
       refY="0"
       refX="0"
       id="Arrow1Lstart"
       style="overflow:visible">
      <path
         id="path4063"
         d="M 0,0 5,-5 -12.5,0 5,5 0,0 Z"
         style="fill-rule:evenodd;stroke:#000000;stroke-width:1pt;marker-start:none"
         transform="matrix(0.8,0,0,0.8,10,0)"
         inkscape:connector-curvature="0" />
    </marker>
    <clipPath
       clipPathUnits="userSpaceOnUse"
       id="clipPath7134">
      <rect
         style="fill:none;stroke:#3295ff;stroke-width:0.35433072;stroke-linecap:round;stroke-linejoin:round;stroke-miterlimit:4;stroke-dasharray:none;stroke-dashoffset:0;stroke-opacity:1"
         id="rect7136"
         width="120.39046"
         height="86.434174"
         x="1709.6475"
         y="1679.1332"
         ry="0" />
    </clipPath>
    <linearGradient
       id="linearGradient6081-7">
      <stop
         id="stop6089-4"
         offset="0"
         style="stop-color:#7d7d7d;stop-opacity:1;" />
      <stop
         style="stop-color:#ffffff;stop-opacity:1"
         offset="1"
         id="stop6085-0" />
    </linearGradient>
    <linearGradient
       inkscape:collect="always"
       xlink:href="#linearGradient6081-7"
       id="linearGradient6152-1"
       gradientUnits="userSpaceOnUse"
       x1="704.98547"
       y1="223.31033"
       x2="704.6319"
       y2="277.40402" />
    <marker
       inkscape:stockid="Arrow1Lstart"
       orient="auto"
       refY="0"
       refX="0"
       id="Arrow1Lstart-4"
       style="overflow:visible">
      <path
         inkscape:connector-curvature="0"
         id="path4063-2"
         d="M 0,0 5,-5 -12.5,0 5,5 0,0 Z"
         style="fill-rule:evenodd;stroke:#000000;stroke-width:1pt;marker-start:none"
         transform="matrix(0.8,0,0,0.8,10,0)" />
    </marker>
    <clipPath
       id="ID000001">
      <rect
         id="rect8087"
         height="496.64099"
         width="543.133"
         y="45.702999"
         x="102.009" />
    </clipPath>
    <clipPath
       id="ID000009">
      <rect
         id="rect8245"
         height="497.81299"
         width="25"
         y="46.405998"
         x="664.21899" />
    </clipPath>
    <clipPath
       id="ID000001-7">
      <rect
         id="rect9182"
         height="496.64099"
         width="466.172"
         y="45.702999"
         x="85.313004" />
    </clipPath>
  </defs>
  <sodipodi:namedview
     id="base"
     pagecolor="#ffffff"
     bordercolor="#666666"
     borderopacity="1.0"
     inkscape:pageopacity="0.0"
     inkscape:pageshadow="2"
     inkscape:zoom="4"
     inkscape:cx="126.56733"
     inkscape:cy="939.57484"
     inkscape:document-units="px"
     inkscape:current-layer="layer2"
     showgrid="false"
     inkscape:window-width="1680"
     inkscape:window-height="1028"
     inkscape:window-x="-8"
     inkscape:window-y="22"
     inkscape:window-maximized="1"
     units="mm" />
  <metadata
     id="metadata7">
    <rdf:RDF>
      <cc:Work
         rdf:about="">
        <dc:format>image/svg+xml</dc:format>
        <dc:type
           rdf:resource="http://purl.org/dc/dcmitype/StillImage" />
        <dc:title></dc:title>
      </cc:Work>
    </rdf:RDF>
  </metadata>
  <g
     inkscape:label="Layer 1"
     inkscape:groupmode="layer"
     id="layer1"
     style="display:inline"
     transform="translate(0,7.0864858)">
    <path
       sodipodi:nodetypes="ccc"
       inkscape:connector-curvature="0"
       id="path5862"
       d="M 77.294809,57.85064 C 76.639404,54.90132 72.23088,53.422581 72.23088,53.422581 l -0.09372,-0.08189"
       style="fill:none;stroke:#000000;stroke-width:0.22938804;stroke-linecap:butt;stroke-linejoin:miter;stroke-miterlimit:4;stroke-opacity:1;stroke-dasharray:none;display:inline" />
    <path
       sodipodi:nodetypes="ccc"
       inkscape:connector-curvature="0"
       id="path5862-4"
       d="m 96.350386,57.768714 c 0.655455,-2.949288 4.576254,-4.232956 4.576254,-4.232956 l 0.1912,-0.276976"
       style="fill:none;stroke:#000000;stroke-width:0.22938804;stroke-linecap:butt;stroke-linejoin:miter;stroke-miterlimit:4;stroke-opacity:1;stroke-dasharray:none;display:inline" />
    <text
       sodipodi:linespacing="125%"
       id="text6569"
       y="75.821533"
       x="65.814125"
       style="font-size:7.5px;font-style:normal;font-variant:normal;font-weight:normal;font-stretch:normal;text-align:end;line-height:125%;letter-spacing:0px;word-spacing:0px;writing-mode:lr-tb;text-anchor:end;fill:#000000;fill-opacity:1;stroke:none;display:inline;font-family:Sans;-inkscape-font-specification:'Sans, Normal'"
       xml:space="preserve"><tspan
         style="font-size:7.5px;font-style:normal;font-variant:normal;font-weight:normal;font-stretch:normal;text-align:end;line-height:125%;writing-mode:lr-tb;text-anchor:end;font-family:Sans;-inkscape-font-specification:'Sans, Normal'"
         y="75.821533"
         x="67.894203"
         id="tspan6571"
         sodipodi:role="line">60 X </tspan><tspan
         style="font-size:7.5px;font-style:normal;font-variant:normal;font-weight:normal;font-stretch:normal;text-align:end;line-height:125%;writing-mode:lr-tb;text-anchor:end;font-family:Sans;-inkscape-font-specification:'Sans, Normal'"
         y="85.196533"
         x="65.814125"
         sodipodi:role="line"
         id="tspan4008">NA 0.9</tspan></text>
    <rect
       y="49.329838"
       x="-53.06469"
       height="63.612267"
       width="4.659482"
       id="rect4805-4-8"
       style="fill:#ffffff;fill-opacity:1;fill-rule:evenodd;stroke:#000000;stroke-width:0.58286685px;stroke-linecap:butt;stroke-linejoin:miter;stroke-opacity:1"
       transform="matrix(0,-1,1,0,0,0)" />
    <rect
       y="49.329838"
       x="-34.123718"
       height="63.612267"
       width="4.659482"
       id="rect4805-4-8-8"
       style="fill:#ffffff;fill-opacity:1;fill-rule:evenodd;stroke:#000000;stroke-width:0.58286685px;stroke-linecap:butt;stroke-linejoin:miter;stroke-opacity:1"
       transform="matrix(0,-1,1,0,0,0)" />
    <rect
       y="49.056461"
       x="-48.112629"
       height="64.140251"
       width="13.687439"
       id="rect3994"
       style="fill:#00dde8;fill-opacity:1;stroke:none"
       transform="matrix(0,-1,1,0,0,0)" />
    <g
       id="g4849"
       transform="translate(-0.69135643,0)">
      <path
         style="fill:none;stroke:#00dd00;stroke-width:0.45899999;stroke-linecap:butt;stroke-linejoin:miter;stroke-miterlimit:4.0999999;stroke-opacity:0.75661376;stroke-dasharray:none;display:inline"
         d="M 81.985575,39.118469 C 88.797998,50.959212 80.97178,57.771697 80.97178,57.771697"
         id="path6040"
         inkscape:connector-curvature="0"
         sodipodi:nodetypes="cc" />
      <path
         style="fill:none;stroke:#00dd00;stroke-width:0.45899999;stroke-linecap:butt;stroke-linejoin:miter;stroke-miterlimit:4.0999999;stroke-opacity:0.75661376;stroke-dasharray:none;display:inline"
         d="m 90.688484,39.138085 c -6.812413,11.840713 1.013804,18.65315 1.013804,18.65315"
         id="path6040-8"
         inkscape:connector-curvature="0"
         sodipodi:nodetypes="cc" />
    </g>
    <g
       transform="matrix(0,-0.45877615,0.45877615,0,-28.25609,405.04585)"
       id="g6147"
       style="display:inline">
      <rect
         style="fill:url(#linearGradient6152-1);fill-opacity:1;stroke:#000000;stroke-width:1.09275556;stroke-opacity:1"
         id="rect5824"
         width="93.944183"
         height="66.343094"
         x="656.61945"
         y="215.10153" />
      <rect
         style="fill:none;stroke:#000000;stroke-opacity:1"
         id="rect5826"
         width="2.8571429"
         height="58.92857"
         x="750.64288"
         y="218.80879" />
      <rect
         style="fill:#d4aa00;stroke:#000000;stroke-opacity:1"
         id="rect5828"
         width="2.1428571"
         height="50.357143"
         x="754.21429"
         y="223.09451" />
    </g>
    <rect
       y="79.555061"
       x="-174.13206"
       height="12.098745"
       width="113.27221"
       id="rect5804-6-7"
       style="fill:#c80000;fill-opacity:0.39893619;stroke:none;display:inline"
       transform="matrix(0,-1,1,0,0,0)" />
    <rect
       y="80.961876"
       x="-157.94191"
       height="9.3676033"
       width="97.021896"
       id="rect5804-6"
       style="fill:#00dd00;fill-opacity:1;stroke:none;display:inline"
       transform="matrix(0,-1,1,0,0,0)" />
    <path
       inkscape:connector-curvature="0"
       id="path5662"
       d="M 70.999702,141.48823 101.47557,110.68466"
       style="fill:none;stroke:#000000;stroke-width:0.45877609px;stroke-linecap:butt;stroke-linejoin:miter;stroke-opacity:1;display:inline" />
    <path
       inkscape:connector-curvature="0"
       id="path6021"
       d="m 101.94774,158.16668 -34.711196,0 0.324387,0"
       style="fill:none;stroke:#000000;stroke-width:1.14694035;stroke-linecap:butt;stroke-linejoin:miter;stroke-miterlimit:4;stroke-opacity:1;stroke-dasharray:none;display:inline" />
    <flowRoot
       style="font-size:7.74653912px;font-style:normal;font-variant:normal;font-weight:normal;font-stretch:normal;text-align:end;line-height:125%;letter-spacing:0px;word-spacing:0px;writing-mode:lr-tb;text-anchor:end;fill:#000000;fill-opacity:1;stroke:none;display:inline;font-family:Sans;-inkscape-font-specification:'Sans, Normal'"
       id="flowRoot6023"
       xml:space="preserve"
       transform="matrix(0.96817426,0,0,0.96817426,-109.09244,-340.04091)"><flowRegion
         id="flowRegion6025"><rect
           y="509.98575"
           x="115.02007"
           height="31.037634"
           width="65.155334"
           id="rect6027"
           style="font-size:7.74653912px;font-style:normal;font-variant:normal;font-weight:normal;font-stretch:normal;text-align:end;line-height:125%;writing-mode:lr-tb;text-anchor:end;font-family:Sans;-inkscape-font-specification:'Sans, Normal'" /></flowRegion><flowPara
         id="flowPara6029">Filter</flowPara></flowRoot>    <text
       sodipodi:linespacing="125%"
       id="text4271"
       y="121.87852"
       x="41.842381"
       style="font-size:7.5px;font-style:normal;font-variant:normal;font-weight:normal;font-stretch:normal;text-align:end;line-height:125%;letter-spacing:0px;word-spacing:0px;writing-mode:lr-tb;text-anchor:end;fill:#000000;fill-opacity:1;stroke:none;display:inline;font-family:Sans;-inkscape-font-specification:'Sans, Normal'"
       xml:space="preserve"><tspan
         y="121.87852"
         x="43.922459"
         sodipodi:role="line"
         id="tspan9657">532nm </tspan><tspan
         y="131.25351"
         x="41.842381"
         sodipodi:role="line"
         id="tspan9661">Laser</tspan></text>
    <text
       transform="scale(1.0302983,0.9705927)"
       sodipodi:linespacing="125%"
       id="text5362"
       y="44.455036"
       x="13.450398"
       style="font-size:7.5px;font-style:normal;font-variant:normal;font-weight:normal;font-stretch:normal;text-align:start;line-height:125%;letter-spacing:0px;word-spacing:0px;writing-mode:lr-tb;text-anchor:start;fill:#000000;fill-opacity:1;stroke:none;display:inline;font-family:Verdana;-inkscape-font-specification:'Verdana, Normal'"
       xml:space="preserve"><tspan
         style="font-size:7.5px;font-style:normal;font-variant:normal;font-weight:normal;font-stretch:normal;text-align:start;line-height:125%;writing-mode:lr-tb;text-anchor:start;font-family:Verdana;-inkscape-font-specification:'Verdana, Normal'"
         id="tspan5366"
         y="44.455036"
         x="13.450398"
         sodipodi:role="line">Flow-cell</tspan></text>
    <flowRoot
       transform="matrix(0,-0.38975952,0.38975952,0,-217.54115,1179.6569)"
       style="font-size:64px;font-style:normal;font-variant:normal;font-weight:normal;font-stretch:normal;text-align:start;line-height:125%;letter-spacing:0px;word-spacing:0px;writing-mode:lr-tb;text-anchor:start;fill:#000000;fill-opacity:1;stroke:none;display:inline;font-family:Verdana;-inkscape-font-specification:Verdana"
       id="flowRoot7138"
       xml:space="preserve"><flowRegion
         id="flowRegion7140"><rect
           y="1655.9811"
           x="1841.8711"
           height="133.76718"
           width="423.93906"
           id="rect7142" /></flowRegion><flowPara
         id="flowPara7144" /></flowRoot>    <text
       sodipodi:linespacing="125%"
       id="text7146"
       y="429.8985"
       x="-460.96799"
       style="font-size:24.94460869px;font-style:normal;font-variant:normal;font-weight:normal;font-stretch:normal;text-align:start;line-height:125%;letter-spacing:0px;word-spacing:0px;writing-mode:lr-tb;text-anchor:start;fill:#000000;fill-opacity:1;stroke:none;display:inline;font-family:Verdana;-inkscape-font-specification:Verdana"
       xml:space="preserve"
       transform="matrix(0,-1,1,0,0,0)"><tspan
         id="tspan7154"
         style="font-size:13.26300144px"
         y="429.8985"
         x="-460.96799"
         sodipodi:role="line" /></text>
    <flowRoot
       transform="matrix(0,-0.38975952,0.38975952,0,-217.54115,1179.6569)"
       style="font-size:64px;font-style:normal;font-variant:normal;font-weight:normal;font-stretch:normal;text-align:start;line-height:125%;letter-spacing:0px;word-spacing:0px;writing-mode:lr-tb;text-anchor:start;fill:#000000;fill-opacity:1;stroke:none;display:inline;font-family:Verdana;-inkscape-font-specification:Verdana"
       id="flowRoot7156"
       xml:space="preserve"><flowRegion
         id="flowRegion7158"><rect
           y="1740.3281"
           x="1858.365"
           height="86.178642"
           width="989.94952"
           id="rect7160" /></flowRegion><flowPara
         id="flowPara7162" /></flowRoot>    <g
       style="display:inline"
       id="g3378"
       transform="matrix(0,-0.38975952,0.38975952,0,591.20985,1491.4645)" />
    <rect
       y="119.81041"
       x="46.407803"
       height="9.3676033"
       width="36.097973"
       id="rect5804-6-1"
       style="fill:#00dd00;fill-opacity:1;stroke:none;display:inline" />
    <rect
       y="71.042549"
       x="-141.51811"
       height="30.475843"
       width="30.475843"
       id="rect5660"
       style="fill:none;stroke:#000000;stroke-width:0.45877609;stroke-opacity:1;display:inline"
       transform="matrix(0,-1,1,0,0,0)" />
    <rect
       y="174.80301"
       x="58.59779"
       height="20.472748"
       width="54.013287"
       id="rect3851"
       style="fill:none;stroke:#000000;stroke-width:0.73142105;stroke-linecap:butt;stroke-linejoin:round;stroke-miterlimit:4;stroke-opacity:1;stroke-dasharray:none;stroke-dashoffset:0" />
    <flowRoot
       style="font-size:7.74653912px;font-style:normal;font-variant:normal;font-weight:normal;font-stretch:normal;text-align:end;line-height:125%;letter-spacing:0px;word-spacing:0px;writing-mode:lr-tb;text-anchor:end;fill:#000000;fill-opacity:1;stroke:none;display:inline;font-family:Sans;-inkscape-font-specification:'Sans, Normal'"
       id="flowRoot6023-0"
       xml:space="preserve"
       transform="matrix(0.96817426,0,0,0.96817426,-116.30438,-341.80869)"><flowRegion
         id="flowRegion6025-9"><rect
           y="539.0791"
           x="143.17989"
           height="31.037634"
           width="79.662918"
           id="rect6027-4"
           style="font-size:7.74653912px;font-style:normal;font-variant:normal;font-weight:normal;font-stretch:normal;text-align:end;line-height:125%;writing-mode:lr-tb;text-anchor:end;font-family:Sans;-inkscape-font-specification:'Sans, Normal'" /></flowRegion><flowPara
         id="flowPara6029-8">Detector</flowPara></flowRoot>    <ellipse
       transform="matrix(0,-1,1,0,0,0)"
       id="path6211-15"
       style="fill:#fcff00;fill-opacity:1;stroke:#ffff00;stroke-width:1.36640096;stroke-miterlimit:4;stroke-opacity:1;stroke-dasharray:none;display:inline"
       cx="-46.817085"
       cy="61.747585"
       rx="0.49005878"
       ry="1.8305149"
       d="m -46.327026,61.747585 c 0,1.010966 -0.219407,1.830515 -0.490059,1.830515 -0.270652,0 -0.490059,-0.819549 -0.490059,-1.830515 0,-1.010965 0.219407,-1.830515 0.490059,-1.830515 0.270652,0 0.490059,0.81955 0.490059,1.830515 z"
       sodipodi:cx="-46.817085"
       sodipodi:cy="61.747585"
       sodipodi:rx="0.49005878"
       sodipodi:ry="1.8305149" />
    <ellipse
       transform="matrix(0,-1,1,0,0,0)"
       id="path6211-15-2"
       style="fill:#fcff00;fill-opacity:1;stroke:#ffff00;stroke-width:1.36640096;stroke-miterlimit:4;stroke-opacity:1;stroke-dasharray:none;display:inline"
       cx="-46.877274"
       cy="71.222862"
       rx="0.49005878"
       ry="1.8305149"
       d="m -46.387215,71.222862 c 0,1.010966 -0.219407,1.830515 -0.490059,1.830515 -0.270652,0 -0.490058,-0.819549 -0.490058,-1.830515 0,-1.010965 0.219406,-1.830515 0.490058,-1.830515 0.270652,0 0.490059,0.81955 0.490059,1.830515 z"
       sodipodi:cx="-46.877274"
       sodipodi:cy="71.222862"
       sodipodi:rx="0.49005878"
       sodipodi:ry="1.8305149" />
    <ellipse
       transform="matrix(0,-1,1,0,0,0)"
       id="path6211-15-7"
       style="fill:#fcff00;fill-opacity:1;stroke:#ffff00;stroke-width:1.36640096;stroke-miterlimit:4;stroke-opacity:1;stroke-dasharray:none;display:inline"
       cx="-46.939556"
       cy="85.831688"
       rx="0.49005878"
       ry="1.8305149"
       d="m -46.449497,85.831688 c 0,1.010965 -0.219407,1.830515 -0.490059,1.830515 -0.270652,0 -0.490059,-0.81955 -0.490059,-1.830515 0,-1.010966 0.219407,-1.830515 0.490059,-1.830515 0.270652,0 0.490059,0.819549 0.490059,1.830515 z"
       sodipodi:cx="-46.939556"
       sodipodi:cy="85.831688"
       sodipodi:rx="0.49005878"
       sodipodi:ry="1.8305149" />
    <ellipse
       transform="matrix(0,-1,1,0,0,0)"
       id="path6211-15-6"
       style="fill:#fcff00;fill-opacity:1;stroke:#ffff00;stroke-width:1.36640096;stroke-miterlimit:4;stroke-opacity:1;stroke-dasharray:none;display:inline"
       cx="-46.939556"
       cy="98.770477"
       rx="0.49005878"
       ry="1.8305149"
       d="m -46.449497,98.770477 c 0,1.010966 -0.219407,1.830513 -0.490059,1.830513 -0.270652,0 -0.490059,-0.819547 -0.490059,-1.830513 0,-1.010965 0.219407,-1.830515 0.490059,-1.830515 0.270652,0 0.490059,0.81955 0.490059,1.830515 z"
       sodipodi:cx="-46.939556"
       sodipodi:cy="98.770477"
       sodipodi:rx="0.49005878"
       sodipodi:ry="1.8305149" />
    <ellipse
       transform="matrix(0,-1,1,0,0,0)"
       id="path6211-15-1"
       style="fill:#fcff00;fill-opacity:1;stroke:#ffff00;stroke-width:1.36640096;stroke-miterlimit:4;stroke-opacity:1;stroke-dasharray:none;display:inline"
       cx="-46.939556"
       cy="108.77328"
       rx="0.49005878"
       ry="1.8305149"
       d="m -46.449497,108.77328 c 0,1.01096 -0.219407,1.83051 -0.490059,1.83051 -0.270652,0 -0.490059,-0.81955 -0.490059,-1.83051 0,-1.01097 0.219407,-1.83052 0.490059,-1.83052 0.270652,0 0.490059,0.81955 0.490059,1.83052 z"
       sodipodi:cx="-46.939556"
       sodipodi:cy="108.77328"
       sodipodi:rx="0.49005878"
       sodipodi:ry="1.8305149" />
    <path
       style="fill:none;stroke:#000000;stroke-width:0.41170719px;stroke-linecap:butt;stroke-linejoin:miter;stroke-opacity:1;marker-start:url(#Arrow1Lstart);marker-end:none"
       d="m 93.368139,38.650831 17.554071,-0.193122 0,0"
       id="path4872"
       inkscape:connector-curvature="0" />
    <path
       style="fill:none;stroke:#000000;stroke-width:0.41170719px;stroke-linecap:butt;stroke-linejoin:miter;stroke-opacity:1;marker-start:url(#Arrow1Lstart);marker-end:none;display:inline"
       d="m 55.216815,38.587416 17.554074,-0.193122 0,0"
       id="path4872-3"
       inkscape:connector-curvature="0" />
    <text
       xml:space="preserve"
       style="font-size:9px;font-style:normal;font-variant:normal;font-weight:normal;font-stretch:normal;text-align:start;line-height:125%;letter-spacing:0px;word-spacing:0px;writing-mode:lr;text-anchor:start;fill:#000000;fill-opacity:1;stroke:none;font-family:Aliquam;-inkscape-font-specification:Aliquam"
       x="7.1229224"
       y="30.635578"
       id="text3380"
       sodipodi:linespacing="125%"><tspan
         sodipodi:role="line"
         id="tspan3382"
         x="7.1229224"
         y="30.635578"
         style="font-size:9px;font-style:normal;font-variant:normal;font-weight:normal;font-stretch:normal;text-align:start;line-height:125%;writing-mode:lr;text-anchor:start;font-family:Aliquam;-inkscape-font-specification:Aliquam">a</tspan></text>
    <text
       xml:space="preserve"
       style="font-size:9px;font-style:normal;font-variant:normal;font-weight:normal;font-stretch:normal;text-align:start;line-height:125%;letter-spacing:0px;word-spacing:0px;writing-mode:lr;text-anchor:start;fill:#000000;fill-opacity:1;stroke:none;display:inline;font-family:Aliquam;-inkscape-font-specification:Aliquam"
       x="123.20071"
       y="30.635578"
       id="text3380-4"
       sodipodi:linespacing="125%"><tspan
         sodipodi:role="line"
         id="tspan3382-0"
         x="123.20071"
         y="30.635578">b</tspan></text>
    <text
       xml:space="preserve"
       style="font-size:9px;font-style:normal;font-variant:normal;font-weight:normal;font-stretch:normal;text-align:start;line-height:125%;letter-spacing:0px;word-spacing:0px;writing-mode:lr;text-anchor:start;fill:#000000;fill-opacity:1;stroke:none;display:inline;font-family:Aliquam;-inkscape-font-specification:Aliquam"
       x="123.68048"
       y="119.49907"
       id="text3380-9"
       sodipodi:linespacing="125%"><tspan
         sodipodi:role="line"
         id="tspan3382-4"
         x="123.68048"
         y="119.49907">c</tspan></text>
    <text
       xml:space="preserve"
       style="font-size:144px;font-style:normal;font-variant:normal;font-weight:normal;font-stretch:normal;text-align:start;line-height:125%;letter-spacing:0px;word-spacing:0px;writing-mode:lr-tb;text-anchor:start;fill:#000000;fill-opacity:1;stroke:none;font-family:Aliquam;-inkscape-font-specification:Aliquam"
       x="140.71425"
       y="134.53758"
       id="text3434"
       sodipodi:linespacing="125%"><tspan
         sodipodi:role="line"
         id="tspan3436"
         x="140.71425"
         y="134.53758" /></text>
  </g>
  <g
     inkscape:groupmode="layer"
     id="layer3"
     inkscape:label="Spectrum"
     transform="translate(0,7.0864858)">
    <polygon
       id="polygon9184"
       points="85.313,45.703 85.313,542.344 551.484,542.344 551.484,45.703 "
       style="fill:#ffffff;fill-opacity:1;stroke:none"
       transform="matrix(0.18319853,0,0,0.18319853,142.95644,108.23006)" />
    <polygon
       id="polygon9186"
       points="85.313,45.703 85.313,45.703 551.484,45.703 551.484,45.703 "
       style="fill:#ffffff;fill-opacity:1;stroke:none"
       transform="matrix(0.18319853,0,0,0.18319853,142.95644,108.23006)" />
    <polygon
       id="polygon9188"
       points="85.313,45.703 85.313,542.344 85.313,542.344 85.313,45.703 "
       style="fill:#ffffff;fill-opacity:1;stroke:none"
       transform="matrix(0.18319853,0,0,0.18319853,142.95644,108.23006)" />
    <g
       id="ID000002-7"
       clip-path="url(#ID000001-7)"
       transform="matrix(0.18319853,0,0,0.18319853,142.95644,108.23006)">
      <polyline
         style="fill:none;stroke:#000000;stroke-width:2pt;stroke-dasharray:none"
         points="-90.467,544.330 -89.856,547.310 -89.243,544.330 -88.630,547.310 -88.017,546.317 -87.407,547.310 -86.793,539.364 -86.180,539.364 -85.570,539.364 -84.957,545.324 -84.344,536.384 -83.733,541.350 -83.120,538.371 -82.507,545.324 -81.896,541.350 -81.283,541.350 -80.670,543.337 -80.057,537.377 -79.447,542.344 -78.834,541.350 -78.221,548.303 -77.610,545.324 -76.997,544.330 -76.384,547.310 -75.773,545.324 -75.160,542.344 -74.547,545.324 -73.936,539.364 -73.323,540.357 -72.710,547.310 -72.100,542.344 -71.487,544.330 -70.876,547.310 -70.263,533.404 -69.650,544.330 -69.039,548.303 -68.426,540.357 -67.813,537.377 -67.203,547.310 -66.590,536.384 -65.977,538.371 -65.366,549.297 -64.753,541.350 -64.142,547.310 -63.529,540.357 -62.916,541.350 -62.305,546.317 -61.692,541.350 -61.079,545.324 -60.469,539.364 -59.856,541.350 -59.245,543.337 -58.632,542.344 -58.019,538.371 -57.408,543.337 -56.795,527.445 -56.185,540.357 -55.572,541.350 -54.959,540.357 -54.348,538.371 -53.735,540.357 -53.124,535.391 -52.511,542.344 -51.901,538.371 -51.288,540.357 -50.674,549.297 -50.064,545.324 -49.451,530.424 -48.840,544.330 -48.227,539.364 -47.614,547.310 -47.003,541.350 -46.390,538.371 -45.780,546.317 -45.167,538.371 -44.556,533.404 -43.943,541.350 -43.332,545.324 -42.719,541.350 -42.106,542.344 -41.496,534.397 -40.883,533.404 -40.272,548.303 -39.659,541.350 -39.048,546.317 -38.435,542.344 -37.824,538.371 -37.211,545.324 -36.601,549.297 -35.988,539.364 -35.377,542.344 -34.764,546.317 -34.153,543.337 -33.540,542.344 -32.930,547.310 -32.317,549.297 -31.704,536.384 -31.093,542.344 -30.480,536.384 -29.869,534.397 -29.256,545.324 -28.646,546.317 -28.033,541.350 -27.422,548.303 -26.809,542.344 -26.198,549.297 -25.585,545.324 -24.974,531.418 -24.361,536.384 -23.751,543.337 -23.140,545.324 -22.527,545.324 -21.916,546.317 -21.303,552.277 -20.693,536.384 -20.080,550.290 -19.469,555.256 -18.856,545.324 -18.245,538.371 -17.632,538.371 -17.022,542.344 -16.409,540.357 -15.798,542.344 -15.185,536.384 -14.574,547.310 -13.963,539.364 -13.350,548.303 -12.740,545.324 -12.127,550.290 -11.516,539.364 -10.903,542.344 -10.292,540.357 -9.679,542.344 -9.069,539.364 -8.458,543.337 -7.845,548.303 -7.234,530.424 -6.621,542.344 -6.011,535.391 -5.398,541.350 -4.787,546.317 -4.176,531.418 -3.563,536.384 -2.952,538.371 -2.339,538.371 -1.729,541.350 -1.118,537.377 -0.505,532.411 0.106,532.411 0.719,539.364 1.329,539.364 1.940,540.357 2.553,532.411 3.164,541.350 3.777,539.364 4.387,536.384 4.998,539.364 5.611,541.350 6.222,533.404 6.835,537.377 7.445,532.411 8.056,545.324 8.669,536.384 9.280,540.357 9.891,536.384 10.504,542.344 11.114,535.391 11.727,534.397 12.338,543.337 12.949,533.404 13.562,542.344 14.172,545.324 14.783,537.377 15.396,535.391 16.007,539.364 16.617,533.404 17.230,530.424 17.841,532.411 18.452,531.418 19.065,536.384 19.675,525.458 20.286,540.357 20.899,539.364 21.510,534.397 22.121,533.404 22.734,536.384 23.344,532.411 23.955,530.424 24.568,542.344 25.179,537.377 25.789,535.391 26.402,532.411 27.013,531.418 27.624,525.458 28.237,535.391 28.847,542.344 29.458,528.438 30.069,524.465 30.682,536.384 31.293,535.391 31.903,525.458 32.516,529.431 33.127,528.438 33.738,528.438 34.348,520.492 34.961,539.364 35.572,533.404 36.183,544.330 36.796,538.371 37.406,548.303 38.017,542.344 38.628,549.297 39.241,545.324 39.851,545.324 40.462,538.371 41.073,541.350 41.686,541.350 42.296,535.391 42.907,538.371 43.518,543.337 44.131,543.337 44.742,536.384 45.352,538.371 45.963,528.438 46.576,544.330 47.187,546.317 47.797,539.364 48.408,539.364 49.021,539.364 49.632,550.290 50.242,542.344 50.853,550.290 51.466,535.391 52.077,543.337 52.687,545.324 53.298,540.357 53.909,542.344 54.522,543.337 55.133,531.418 55.743,540.357 56.354,539.364 56.967,533.404 57.578,543.337 58.188,539.364 58.799,542.344 59.410,542.344 60.023,547.310 60.633,540.357 61.244,542.344 61.855,548.303 62.465,541.350 63.076,542.344 63.689,542.344 64.300,543.337 64.910,550.290 65.521,542.344 66.132,548.303 66.745,534.397 67.356,545.324 67.966,541.350 68.577,534.397 69.188,546.317 69.798,541.350 70.411,547.310 71.022,549.297 71.633,540.357 72.243,542.344 72.854,539.364 73.465,545.324 74.075,540.357 74.688,547.310 75.299,531.418 75.910,539.364 76.520,535.391 77.131,531.418 77.742,528.438 78.353,520.492 78.966,511.552 79.576,508.572 80.187,515.525 80.798,511.552 81.408,506.586 82.019,504.599 82.630,507.579 83.240,494.666 83.853,506.586 84.464,505.592 85.075,484.733 85.685,503.606 86.296,500.626 86.907,505.592 87.517,503.606 88.128,506.586 88.739,491.686 89.350,502.613 89.963,503.606 90.573,495.660 91.184,493.673 91.795,501.619 92.405,487.713 93.016,483.740 93.627,487.713 94.237,481.754 94.848,479.767 95.459,493.673 96.069,487.713 96.680,482.747 97.291,505.592 97.904,494.666 98.514,481.754 99.125,479.767 99.736,498.639 100.347,473.807 100.957,492.680 101.568,469.834 102.179,490.693 102.789,475.794 103.400,505.592 104.011,483.740 104.621,482.747 105.232,494.666 105.843,487.713 106.453,466.854 107.064,478.774 107.675,482.747 108.285,482.747 108.896,486.720 109.507,495.660 110.118,485.727 110.728,493.673 111.339,493.673 111.950,481.754 112.560,485.727 113.173,483.740 113.784,480.760 114.395,476.787 115.005,500.626 115.616,494.666 116.227,486.720 116.837,483.740 117.448,498.639 118.059,488.707 118.669,483.740 119.280,480.760 119.891,480.760 120.499,465.861 121.110,469.834 121.721,476.787 122.331,480.760 122.942,484.733 123.553,494.666 124.163,464.868 124.774,481.754 125.385,478.774 125.995,487.713 126.606,469.834 127.217,491.686 127.827,485.727 128.438,484.733 129.049,480.760 129.659,484.733 130.270,478.774 130.881,478.774 131.491,470.827 132.102,480.760 132.713,482.747 133.324,472.814 133.934,472.814 134.545,478.774 135.156,461.888 135.764,465.861 136.375,493.673 136.985,480.760 137.596,482.747 138.207,474.801 138.817,474.801 139.428,466.854 140.039,473.807 140.649,471.821 141.260,470.827 141.871,471.821 142.481,478.774 143.092,468.841 143.701,482.747 144.311,485.727 144.922,477.780 145.533,474.801 146.143,472.814 146.754,481.754 147.365,469.834 147.975,466.854 148.586,466.854 149.197,479.767 149.805,470.827 150.416,469.834 151.026,479.767 151.637,480.760 152.248,465.861 152.858,475.794 153.469,464.868 154.080,457.915 154.688,468.841 155.299,475.794 155.910,455.928 156.520,465.861 157.131,471.821 157.742,465.861 158.352,469.834 158.961,470.827 159.571,470.827 160.182,464.868 160.793,461.888 161.403,473.807 162.014,464.868 162.625,475.794 163.233,446.989 163.844,466.854 164.454,472.814 165.065,468.841 165.676,479.767 166.287,464.868 166.895,461.888 167.506,451.955 168.116,455.928 168.727,473.807 169.338,471.821 169.946,458.908 170.557,447.982 171.167,457.915 171.778,448.975 172.389,458.908 172.999,461.888 173.608,442.022 174.218,464.868 174.829,472.814 175.440,470.827 176.051,467.848 176.659,451.955 177.270,463.875 177.880,445.995 178.491,453.942 179.099,446.989 179.710,449.969 180.321,452.948 180.931,453.942 181.542,446.989 182.150,449.969 182.761,443.016 183.372,455.928 183.982,448.975 184.591,446.989 185.201,460.895 185.812,446.989 186.423,439.043 187.031,454.935 187.642,458.908 188.253,452.948 188.863,451.955 189.472,453.942 190.082,442.022 190.693,449.969 191.304,447.982 191.912,460.895 192.523,445.995 193.133,442.022 193.744,442.022 194.352,462.881 194.963,440.036 195.574,445.002 196.184,438.049 196.793,457.915 197.404,436.063 198.014,455.928 198.623,440.036 199.233,436.063 199.844,431.096 200.455,435.069 201.063,433.083 201.674,438.049 202.284,428.116 202.893,430.103 203.503,442.022 204.114,445.002 204.725,440.036 205.333,444.009 205.944,427.123 206.554,442.022 207.163,420.170 207.774,438.049 208.384,427.123 208.993,432.090 209.603,434.076 210.214,432.090 210.822,431.096 211.433,417.190 212.044,418.184 212.652,429.110 213.263,417.190 213.873,416.197 214.482,412.224 215.092,426.130 215.703,420.170 216.311,435.069 216.922,413.217 217.533,410.237 218.141,426.130 218.752,420.170 219.363,426.130 219.971,431.096 220.582,403.284 221.192,421.163 221.801,406.264 222.411,406.264 223.020,398.318 223.630,414.210 224.241,398.318 224.849,407.257 225.460,418.184 226.071,409.244 226.679,416.197 227.290,403.284 227.898,405.271 228.509,406.264 229.120,389.378 229.728,388.385 230.339,389.378 230.947,405.271 231.558,390.372 232.168,403.284 232.777,387.392 233.387,404.278 233.996,396.331 234.606,397.325 235.217,407.257 235.825,406.264 236.436,394.345 237.044,369.513 237.655,376.466 238.266,380.439 238.874,384.412 239.485,384.412 240.093,372.493 240.704,381.432 241.312,389.378 241.923,384.412 242.534,377.459 243.142,383.419 243.753,361.567 244.361,369.513 244.972,361.567 245.580,368.520 246.191,352.627 246.799,356.600 247.410,355.607 248.020,364.546 248.629,345.674 249.240,365.540 249.848,349.647 250.459,343.687 251.067,352.627 251.678,334.748 252.286,336.735 252.897,337.728 253.505,351.634 254.116,328.788 254.724,337.728 255.335,330.775 255.943,312.896 256.554,331.768 257.164,346.667 257.773,323.822 258.383,343.687 258.992,326.802 259.603,292.037 260.211,328.788 260.822,310.909 261.430,299.983 262.041,305.943 262.649,305.943 263.260,303.956 263.868,286.077 264.479,277.138 265.087,289.057 265.695,288.064 266.306,282.104 266.914,290.050 267.525,285.084 268.133,274.158 268.744,272.171 269.352,291.044 269.963,292.037 270.572,280.118 271.182,256.279 271.791,271.178 272.401,254.292 273.010,248.332 273.620,245.353 274.229,250.319 274.839,253.299 275.448,248.332 276.056,235.420 276.667,231.447 277.275,233.433 277.886,226.480 278.494,228.467 279.105,229.460 279.713,242.373 280.324,203.635 280.932,214.561 281.541,207.608 282.151,209.595 282.760,201.648 283.370,222.507 283.979,209.595 284.587,200.655 285.198,194.695 285.806,208.601 286.417,203.635 287.025,183.769 287.636,193.702 288.244,162.910 288.852,171.850 289.463,184.763 290.072,170.857 290.682,136.092 291.291,173.836 291.899,164.897 292.510,158.937 293.118,152.977 293.729,134.105 294.337,139.072 294.945,139.072 295.556,148.011 296.164,136.092 296.773,120.199 297.383,122.186 297.992,111.260 298.602,117.219 299.211,117.219 299.819,95.367 300.430,126.159 301.038,136.092 301.647,116.226 302.257,150.991 302.866,140.065 303.474,109.273 304.085,116.226 304.693,96.360 305.304,109.273 305.912,126.159 306.520,104.307 307.131,84.441 307.739,100.334 308.348,109.273 308.958,123.179 309.567,82.455 310.175,125.166 310.786,94.374 311.394,116.226 312.003,108.280 312.613,122.186 313.222,119.206 313.830,145.031 314.438,114.240 315.049,113.246 315.657,110.266 316.266,117.219 316.876,132.119 317.485,86.428 318.093,117.219 318.704,148.011 319.312,116.226 319.920,123.179 320.531,137.085 321.140,145.031 321.748,152.977 322.356,162.910 322.967,164.897 323.575,156.951 324.184,165.890 324.794,140.065 325.403,168.870 326.011,169.863 326.619,165.890 327.230,191.715 327.838,193.702 328.447,197.675 329.055,167.877 329.666,204.628 330.274,187.742 330.883,206.615 331.493,197.675 332.102,223.500 332.710,212.574 333.318,243.366 333.929,204.628 334.537,203.635 335.146,216.547 335.754,213.568 336.362,219.527 336.973,191.715 337.581,221.514 338.190,235.420 338.798,249.326 339.409,224.494 340.017,230.453 340.626,282.104 341.234,263.232 341.845,273.165 342.453,266.212 343.061,283.097 343.670,281.111 344.278,272.171 344.889,283.097 345.497,275.151 346.105,278.131 346.714,291.044 347.322,308.923 347.933,286.077 348.541,301.970 349.149,284.091 349.758,331.768 350.366,315.876 350.977,337.728 351.585,333.755 352.194,345.674 352.802,329.782 353.410,357.593 354.021,351.634 354.629,338.721 355.238,334.748 355.846,331.768 356.454,334.748 357.063,359.580 357.673,356.600 358.282,354.614 358.890,347.661 359.498,353.620 360.107,348.654 360.715,363.553 361.326,345.674 361.934,387.392 362.543,374.479 363.151,366.533 363.759,372.493 364.368,385.405 364.976,386.399 365.587,378.452 366.195,391.365 366.803,387.392 367.412,387.392 368.020,391.365 368.628,402.291 369.237,400.305 369.845,394.345 370.456,396.331 371.064,401.298 371.673,412.224 372.281,425.137 372.889,406.264 373.498,416.197 374.106,402.291 374.714,418.184 375.325,424.143 375.933,410.237 376.542,420.170 377.150,421.163 377.758,423.150 378.367,429.110 378.975,433.083 379.583,424.143 380.192,438.049 380.800,423.150 381.409,441.029 382.019,432.090 382.628,444.009 383.236,442.022 383.844,431.096 384.453,444.009 385.061,439.043 385.669,464.868 386.278,437.056 386.886,440.036 387.494,439.043 388.103,452.948 388.711,443.016 389.319,455.928 389.928,466.854 390.536,457.915 391.147,462.881 391.755,450.962 392.364,464.868 392.972,461.888 393.580,451.955 394.189,465.861 394.797,466.854 395.405,466.854 396.014,459.901 396.622,466.854 397.230,469.834 397.839,464.868 398.447,477.780 399.055,453.942 399.664,457.915 400.272,480.760 400.881,468.841 401.489,461.888 402.097,473.807 402.706,486.720 403.314,479.767 403.922,468.841 404.531,475.794 405.139,485.727 405.747,480.760 406.356,493.673 406.964,493.673 407.572,492.680 408.181,473.807 408.789,489.700 409.398,482.747 410.006,481.754 410.614,487.713 411.223,477.780 411.831,495.660 412.439,492.680 413.048,495.660 413.656,490.693 414.264,473.807 414.873,485.727 415.481,464.868 416.089,494.666 416.698,482.747 417.306,497.646 417.914,492.680 418.523,507.579 419.131,501.619 419.740,491.686 420.346,497.646 420.954,495.660 421.562,511.552 422.171,489.700 422.779,504.599 423.387,493.673 423.996,499.633 424.604,497.646 425.212,493.673 425.821,493.673 426.429,506.586 427.037,496.653 427.646,501.619 428.254,498.639 428.863,508.572 429.469,502.613 430.077,509.565 430.685,504.599 431.294,501.619 431.902,504.599 432.510,504.599 433.119,514.532 433.727,510.559 434.335,527.445 434.944,501.619 435.552,502.613 436.158,520.492 436.766,517.512 437.375,515.525 437.983,506.586 438.592,513.539 439.200,506.586 439.808,518.505 440.417,509.565 441.025,514.532 441.631,531.418 442.239,519.498 442.848,522.478 443.456,501.619 444.064,519.498 444.673,509.565 445.281,507.579 445.887,525.458 446.495,516.518 447.104,520.492 447.712,511.552 448.321,518.505 448.929,526.451 449.537,522.478 450.143,522.478 450.752,506.586 451.360,515.525 451.968,519.498 452.577,519.498 453.185,525.458 453.791,512.545 454.399,519.498 455.008,526.451 455.616,521.485 456.224,520.492 456.833,528.438 457.439,520.492 458.047,521.485 458.656,510.559 459.264,513.539 459.872,524.465 460.478,526.451 461.087,518.505 461.695,516.518 462.303,526.451 462.912,522.478 463.520,526.451 464.126,521.485 464.734,527.445 465.343,516.518 465.951,520.492 466.557,533.404 467.166,523.471 467.774,526.451 468.382,532.411 468.991,533.404 469.597,528.438 470.205,522.478 470.813,513.539 471.422,532.411 472.028,519.498 472.636,538.371 473.244,527.445 473.853,524.465 474.461,525.458 475.067,527.445 475.676,524.465 476.284,529.431 476.892,533.404 477.498,527.445 478.107,517.512 478.715,517.512 479.323,526.451 479.929,533.404 480.538,533.404 481.146,523.471 481.754,526.451 482.360,520.492 482.969,532.411 483.577,528.438 484.183,535.391 484.791,529.431 485.400,528.438 486.008,531.418 486.614,523.471 487.223,536.384 487.831,530.424 488.437,524.465 489.045,534.397 489.654,524.465 490.262,526.451 490.868,533.404 491.476,543.337 492.085,540.357 492.691,534.397 493.299,539.364 493.907,539.364 494.516,526.451 495.122,530.424 495.730,530.424 496.339,521.485 496.945,522.478 497.553,532.411 498.161,537.377 498.767,529.431 499.376,532.411 499.984,533.404 500.590,532.411 501.198,539.364 501.807,534.397 502.413,533.404 503.021,535.391 503.630,534.397 504.236,528.438 504.844,528.438 505.452,538.371 506.058,532.411 506.667,537.377 507.275,521.485 507.881,531.418 508.489,540.357 509.095,532.411 509.704,528.438 510.312,521.485 510.918,540.357 511.526,543.337 512.135,527.445 512.741,529.431 513.349,537.377 513.958,536.384 514.564,529.431 515.172,547.310 515.778,540.357 516.386,526.451 516.995,535.391 517.601,537.377 518.209,529.431 518.815,541.350 519.423,545.324 520.032,527.445 520.638,530.424 521.246,537.377 521.852,529.431 522.461,535.391 523.069,526.451 523.675,528.438 524.283,523.471 524.889,529.431 525.498,531.418 526.106,536.384 526.712,524.465 527.320,524.465 527.926,535.391 528.535,522.478 529.141,542.344 529.749,535.391 530.357,535.391 530.963,535.391 531.572,552.277 532.178,539.364 532.786,537.377 533.392,535.391 534.001,530.424 534.609,537.377 535.215,537.377 535.823,534.397 536.429,534.397 537.038,541.350 537.644,534.397 538.252,532.411 538.858,531.418 539.466,530.424 540.072,541.350 540.681,534.397 541.287,537.377 541.895,530.424 542.504,540.357 543.110,534.397 543.718,536.384 544.324,538.371 544.932,537.377 545.538,538.371 546.147,535.391 546.753,544.330 547.361,527.445 547.967,531.418 548.575,537.377 549.181,552.277 549.790,531.418 550.396,529.431 551.004,539.364 551.610,541.350 552.219,531.418 552.825,539.364 553.433,536.384 554.039,538.371 554.647,538.371 555.253,534.397 555.862,539.364 556.468,535.391 557.076,545.324 557.682,541.350 558.288,536.384 558.897,529.431 559.503,538.371 560.111,546.317 560.717,530.424 561.325,529.431 561.931,535.391 562.540,538.371 563.146,539.364 563.754,543.337 564.360,549.297 564.968,542.344 565.574,553.270 566.180,532.411 566.789,529.431 567.395,543.337 568.003,534.397 568.609,534.397 569.218,540.357 569.824,525.458 570.430,548.303 571.038,537.377 571.644,543.337 572.252,543.337 572.858,526.451 573.467,543.337 574.073,541.350 574.679,540.357 575.287,536.384 575.893,536.384 576.501,535.391 577.108,542.344 577.714,545.324 578.322,534.397 578.928,536.384 579.536,543.337 580.142,533.404 580.748,538.371 581.357,549.297 581.963,533.404 582.571,535.391 583.177,545.324 583.783,531.418 584.391,530.424 584.997,535.391 585.603,535.391 586.212,528.438 586.818,541.350 587.426,536.384 588.032,546.317 588.638,546.317 589.247,526.451 589.853,545.324 590.459,541.350 591.067,536.384 591.673,531.418 592.279,543.337 592.887,542.344 593.493,541.350 594.102,543.337 594.708,539.364 595.314,542.344 595.922,539.364 596.528,530.424 597.134,532.411 597.743,549.297 598.349,532.411 598.955,536.384 599.563,533.404 600.169,533.404 600.775,545.324 601.381,527.445 601.989,532.411 602.595,531.418 603.201,544.330 603.810,537.377 604.416,529.431 605.022,533.404 605.630,542.344 606.236,544.330 606.842,532.411 607.451,534.397 608.057,535.391 608.663,537.377 609.269,540.357 609.877,538.371 610.483,540.357 611.089,543.337 611.697,536.384 612.303,540.357 612.910,539.364 613.516,533.404 614.124,548.303 614.730,545.324 615.336,544.330 615.944,543.337 616.550,551.283 617.156,539.364 617.762,532.411 618.371,554.263 618.977,548.303 619.583,548.303 620.189,541.350 620.797,545.324 621.403,529.431 622.009,540.357 622.615,549.297 623.224,539.364 623.830,540.357 624.436,540.357 625.042,541.350 625.650,550.290 626.256,546.317 626.862,541.350 627.468,545.324 628.076,538.371 628.682,537.377 629.288,539.364 629.894,535.391 630.501,541.350 631.109,549.297 631.715,535.391 632.321,545.324 632.927,550.290 633.533,542.344 634.141,533.404 634.747,540.357 635.353,542.344 635.959,539.364 636.568,546.317 637.174,543.337 637.780,547.310 638.386,555.256 638.992,555.256 639.598,533.404 640.206,541.350 640.812,542.344 641.418,551.283 642.024,539.364 642.630,541.350 643.239,537.377 643.845,530.424 644.451,528.438 645.057,537.377 645.663,542.344 646.269,533.404 646.877,542.344 647.483,548.303 648.089,537.377 648.695,554.263 649.301,525.458 649.907,542.344 650.516,543.337 651.122,538.371 651.728,522.478 652.334,542.344 652.940,537.377 653.546,540.357 654.152,545.324 654.758,536.384 655.366,538.371 655.972,552.277 656.578,544.330 657.184,544.330 657.790,545.324 658.396,541.350 659.002,540.357 659.611,542.344 660.217,535.391 660.823,532.411 661.429,536.384 662.035,553.270 662.641,539.364 663.247,542.344 663.853,537.377 664.459,546.317 665.065,540.357 665.673,546.317 666.279,539.364 666.885,544.330 667.491,533.404 668.097,534.397 668.703,553.270 669.309,548.303 669.915,542.344 670.521,538.371 671.127,527.445 671.733,541.350 672.342,548.303 672.948,546.317 673.554,544.330 674.160,544.330 674.766,543.337 675.372,536.384 675.978,547.310 676.584,537.377 677.190,542.344 677.796,541.350 678.402,540.357 679.008,542.344 679.614,539.364 680.220,535.391 680.826,544.330 681.432,532.411 682.038,539.364 682.644,532.411 683.250,537.377 683.859,533.404 684.465,539.364 685.071,527.445 685.677,550.290 686.283,535.391 686.889,535.391 687.495,538.371 688.101,542.344 688.707,526.451 689.313,537.377 689.919,542.344 690.525,538.371 691.131,544.330 691.737,529.431 692.343,537.377 692.949,544.330 693.555,539.364 694.161,546.317 694.767,545.324 695.373,540.357 695.979,544.330 696.585,549.297 697.191,543.337 697.797,548.303 698.403,552.277 699.009,533.404 699.615,539.364 700.221,548.303 700.827,550.290 701.433,543.337 702.039,542.344 702.645,547.310 703.249,541.350 703.855,547.310 704.461,534.397 705.067,544.330 705.673,552.277 706.279,538.371 706.885,544.330 707.491,549.297 708.097,540.357 708.703,535.391 709.309,538.371 709.915,546.317 710.521,536.384 711.127,547.310 711.733,527.445 712.339,533.404 712.945,541.350 713.551,539.364 714.157,544.330 714.761,539.364 715.367,550.290 715.973,544.330 716.579,539.364 717.185,536.384 717.791,543.337 718.397,536.384 719.003,546.317 719.609,548.303 720.215,545.324 720.821,542.344 721.427,548.303 722.031,536.384 722.637,539.364 723.243,537.377 723.849,539.364 724.455,540.357 725.061,544.330 "
         id="polyline9193" />
      <g
         id="g9195" />
    </g>
    <text
       id="text9202"
       font-size="19pt"
       y="223.21436"
       x="198.03732"
       style="font-size:9px;font-style:normal;font-variant:normal;font-weight:normal;font-stretch:normal;text-align:center;line-height:125%;writing-mode:lr-tb;text-anchor:middle;fill:#000000;font-family:Sans;-inkscape-font-specification:Sans"
       sodipodi:linespacing="125%">Wavelength (nm)</text>
    <text
       id="text9209"
       font-size="19pt"
       y="137.04924"
       x="-162.14287"
       style="font-size:9px;font-style:normal;font-variant:normal;font-weight:normal;font-stretch:normal;text-align:center;line-height:125%;writing-mode:lr-tb;text-anchor:middle;fill:#000000;font-family:Sans;-inkscape-font-specification:Sans"
       transform="matrix(0,-1,1,0,0,0)"
       sodipodi:linespacing="125%">Counts/5s</text>
    <g
       id="ID000005-9"
       transform="matrix(0.32068957,0,0,0.32068957,325.77697,366.89676)" />
    <polyline
       style="fill:none;stroke:#000000;stroke-width:3.82099127999999990;stroke-miterlimit:4;stroke-dasharray:none"
       points="201.855,542.344 201.855,537.377 "
       id="polyline9214"
       transform="matrix(0.18319853,0,0,0.18319853,142.95644,108.23006)" />
    <polyline
       style="fill:none;stroke:#000000;stroke-width:3.82099127999999990;stroke-miterlimit:4;stroke-dasharray:none"
       points="318.398,542.344 318.398,537.377 "
       id="polyline9216"
       transform="matrix(0.18319853,0,0,0.18319853,142.95644,108.23006)" />
    <polyline
       style="fill:none;stroke:#000000;stroke-width:3.82099127999999990;stroke-miterlimit:4;stroke-dasharray:none"
       points="434.941,542.344 434.941,537.377 "
       id="polyline9218"
       transform="matrix(0.18319853,0,0,0.18319853,142.95644,108.23006)" />
    <polyline
       style="fill:none;stroke:#000000;stroke-width:1.63756773;stroke-miterlimit:4;stroke-dasharray:none"
       points="85.313,542.344 551.484,542.344 "
       id="polyline9220"
       transform="matrix(0.18319853,0,0,0.18319853,142.95644,108.23006)" />
    <polyline
       style="fill:none;stroke:#000000;stroke-width:0.5pt;stroke-dasharray:none"
       points="201.855,45.703 201.855,50.670 "
       id="polyline9222"
       transform="matrix(0.18319853,0,0,0.18319853,142.95644,108.23006)" />
    <polyline
       style="fill:none;stroke:#000000;stroke-width:0.5pt;stroke-dasharray:none"
       points="318.398,45.703 318.398,50.670 "
       id="polyline9224"
       transform="matrix(0.18319853,0,0,0.18319853,142.95644,108.23006)" />
    <polyline
       style="fill:none;stroke:#000000;stroke-width:0.5pt;stroke-dasharray:none"
       points="434.941,45.703 434.941,50.670 "
       id="polyline9226"
       transform="matrix(0.18319853,0,0,0.18319853,142.95644,108.23006)" />
    <polyline
       style="fill:none;stroke:#000000;stroke-width:1.63756773;stroke-miterlimit:4;stroke-dasharray:none"
       points="85.313,45.703 551.484,45.703 "
       id="polyline9228"
       transform="matrix(0.18319853,0,0,0.18319853,142.95644,108.23006)" />
    <text
       style="font-size:9px;font-style:normal;font-variant:normal;font-weight:normal;font-stretch:normal;text-align:center;line-height:125%;writing-mode:lr-tb;text-anchor:middle;fill:#000000;font-family:Sans;-inkscape-font-specification:Sans"
       x="158.61642"
       y="216.25949"
       font-size="19pt"
       id="text9234"
       sodipodi:linespacing="125%">550</text>
    <text
       style="font-size:9px;font-style:normal;font-variant:normal;font-weight:normal;font-stretch:normal;text-align:center;line-height:125%;writing-mode:lr-tb;text-anchor:middle;fill:#000000;font-family:Sans;-inkscape-font-specification:Sans;stroke-width:0.7015748;stroke-miterlimit:4;stroke-dasharray:none"
       x="179.98741"
       y="216.25949"
       font-size="19pt"
       id="text9240"
       sodipodi:linespacing="125%">600</text>
    <text
       style="font-size:9px;font-style:normal;font-variant:normal;font-weight:normal;font-stretch:normal;text-align:center;line-height:125%;writing-mode:lr-tb;text-anchor:middle;fill:#000000;font-family:Sans;-inkscape-font-specification:Sans"
       x="201.42728"
       y="216.25949"
       font-size="19pt"
       id="text9246"
       sodipodi:linespacing="125%">650</text>
    <text
       style="font-size:9px;font-style:normal;font-variant:normal;font-weight:normal;font-stretch:normal;text-align:center;line-height:125%;writing-mode:lr-tb;text-anchor:middle;fill:#000000;font-family:Sans;-inkscape-font-specification:Sans"
       x="223.0634"
       y="216.25949"
       font-size="19pt"
       id="text9252"
       sodipodi:linespacing="125%">700</text>
    <text
       style="font-size:9px;font-style:normal;font-variant:normal;font-weight:normal;font-stretch:normal;text-align:center;line-height:125%;writing-mode:lr-tb;text-anchor:middle;fill:#000000;font-family:Sans;-inkscape-font-specification:Sans"
       x="243.9919"
       y="216.25949"
       font-size="19pt"
       id="text9258"
       sodipodi:linespacing="125%">750</text>
    <polyline
       style="fill:none;stroke:#000000;stroke-width:3.82099127999999990;stroke-miterlimit:4;stroke-dasharray:none"
       points="85.313,443.016 90.279,443.016 "
       id="polyline9260"
       transform="matrix(0.18319853,0,0,0.18319853,142.95644,108.23006)" />
    <polyline
       style="fill:none;stroke:#000000;stroke-width:3.82099127999999990;stroke-miterlimit:4;stroke-dasharray:none"
       points="85.313,343.688 90.279,343.688 "
       id="polyline9262"
       transform="matrix(0.18319853,0,0,0.18319853,142.95644,108.23006)" />
    <polyline
       style="fill:none;stroke:#000000;stroke-width:3.82099127999999990;stroke-miterlimit:4;stroke-dasharray:none"
       points="85.313,244.359 90.279,244.359 "
       id="polyline9264"
       transform="matrix(0.18319853,0,0,0.18319853,142.95644,108.23006)" />
    <polyline
       style="fill:none;stroke:#000000;stroke-width:3.82099127999999990;stroke-miterlimit:4;stroke-dasharray:none"
       points="85.313,145.031 90.279,145.031 "
       id="polyline9266"
       transform="matrix(0.18319853,0,0,0.18319853,142.95644,108.23006)" />
    <polyline
       style="fill:none;stroke:#000000;stroke-width:1.63756773;stroke-miterlimit:4;stroke-dasharray:none"
       points="85.313,542.344 85.313,45.703 "
       id="polyline9268"
       transform="matrix(0.18319853,0,0,0.18319853,142.95644,108.23006)" />
    <polyline
       style="fill:none;stroke:#000000;stroke-width:3.82099128;stroke-miterlimit:4;stroke-dasharray:none"
       points="551.484,443.016 546.518,443.016 "
       id="polyline9270"
       transform="matrix(0.18319853,0,0,0.18319853,142.95644,108.23006)" />
    <polyline
       style="fill:none;stroke:#000000;stroke-width:3.82099128;stroke-miterlimit:4;stroke-dasharray:none"
       points="551.484,343.688 546.518,343.688 "
       id="polyline9272"
       transform="matrix(0.18319853,0,0,0.18319853,142.95644,108.23006)" />
    <polyline
       style="fill:none;stroke:#000000;stroke-width:3.82099128;stroke-miterlimit:4;stroke-dasharray:none"
       points="551.484,244.359 546.518,244.359 "
       id="polyline9274"
       transform="matrix(0.18319853,0,0,0.18319853,142.95644,108.23006)" />
    <polyline
       style="fill:none;stroke:#000000;stroke-width:3.82099128;stroke-miterlimit:4;stroke-dasharray:none"
       points="551.484,145.031 546.518,145.031 "
       id="polyline9276"
       transform="matrix(0.18319853,0,0,0.18319853,142.95644,108.23006)" />
    <polyline
       style="fill:none;stroke:#000000;stroke-width:1.63756773;stroke-miterlimit:4;stroke-dasharray:none"
       points="551.484,542.344 551.484,45.703 "
       id="polyline9278"
       transform="matrix(0.18319853,0,0,0.18319853,142.95644,108.23006)" />
    <text
       style="font-size:9px;font-style:normal;font-variant:normal;font-weight:normal;font-stretch:normal;text-align:center;line-height:125%;writing-mode:lr-tb;text-anchor:middle;fill:#000000;font-family:Sans;-inkscape-font-specification:Sans"
       x="155.4369"
       y="210.76613"
       font-size="19pt"
       id="text9284"
       sodipodi:linespacing="125%">0</text>
    <text
       style="font-size:9px;font-style:normal;font-variant:normal;font-weight:normal;font-stretch:normal;text-align:center;line-height:125%;writing-mode:lr-tb;text-anchor:middle;fill:#000000;font-family:Sans;-inkscape-font-specification:Sans"
       x="150.42714"
       y="192.56938"
       font-size="19pt"
       id="text9290"
       sodipodi:linespacing="125%">100</text>
    <text
       style="font-size:9px;font-style:normal;font-variant:normal;font-weight:normal;font-stretch:normal;text-align:center;line-height:125%;writing-mode:lr-tb;text-anchor:middle;fill:#000000;font-family:Sans;-inkscape-font-specification:Sans"
       x="150.42714"
       y="174.37263"
       font-size="19pt"
       id="text9296"
       sodipodi:linespacing="125%">200</text>
    <text
       style="font-size:9px;font-style:normal;font-variant:normal;font-weight:normal;font-stretch:normal;text-align:center;line-height:125%;writing-mode:lr-tb;text-anchor:middle;fill:#000000;font-family:Sans;-inkscape-font-specification:Sans"
       x="150.42714"
       y="156.17352"
       font-size="19pt"
       id="text9302"
       sodipodi:linespacing="125%">300</text>
    <text
       style="font-size:9px;font-style:normal;font-variant:normal;font-weight:normal;font-stretch:normal;text-align:center;line-height:125%;writing-mode:lr-tb;text-anchor:middle;fill:#000000;font-family:Sans;-inkscape-font-specification:Sans;stroke-width:0.1;stroke-miterlimit:4;stroke-dasharray:none"
       x="150.42714"
       y="137.97897"
       font-size="19pt"
       id="text9308"
       sodipodi:linespacing="125%">400</text>
    <text
       style="font-size:9px;font-style:normal;font-variant:normal;font-weight:normal;font-stretch:normal;text-align:center;line-height:125%;writing-mode:lr-tb;text-anchor:middle;fill:#000000;font-family:Sans;-inkscape-font-specification:Sans"
       x="150.42714"
       y="119.78223"
       font-size="19pt"
       id="text9314"
       sodipodi:linespacing="125%">500</text>
    <polyline
       style="fill:none;stroke:#000000;stroke-width:0.50000000000000000pt;stroke-dasharray:none"
       points="85.313,542.344 85.313,537.377 "
       id="polyline9316"
       transform="matrix(0.18319853,0,0,0.18319853,142.95644,108.23006)" />
    <polyline
       style="fill:none;stroke:#000000;stroke-width:0.50000000000000000pt;stroke-dasharray:none"
       points="85.313,542.344 85.313,542.344 "
       id="polyline9318"
       transform="matrix(0.18319853,0,0,0.18319853,142.95644,108.23006)" />
  </g>
  <g
     inkscape:groupmode="layer"
     id="layer2"
     inkscape:label="Scan"
     transform="translate(0,7.0864858)">
    <polygon
       id="polygon8089"
       points="102.009,45.703 102.009,542.344 645.142,542.344 645.142,45.703 "
       style="fill:#ffffff;fill-opacity:1;stroke:none"
       transform="matrix(0.1360481,0,0,0.1360481,143.8945,21.717305)" />
    <polygon
       id="polygon8091"
       points="102.009,45.703 102.009,45.703 645.142,45.703 645.142,45.703 "
       style="fill:#ffffff;fill-opacity:1;stroke:none"
       transform="matrix(0.1360481,0,0,0.1360481,143.8945,21.717305)" />
    <polygon
       id="polygon8093"
       points="102.009,45.703 102.009,542.344 102.009,542.344 102.009,45.703 "
       style="fill:#ffffff;fill-opacity:1;stroke:none"
       transform="matrix(0.1360481,0,0,0.1360481,143.8945,21.717305)" />
    <g
       id="ID000002"
       clip-path="url(#ID000001)"
       transform="matrix(0.1360481,0,0,0.1360481,143.8945,21.717305)">
      <image
         sodipodi:absref="C:\Users\carattino\Documents\Paper_Writing\KCN\Paper\Figures\01_Setup\scan001.png"
         xlink:href="scan001.png"
         style="image-rendering:optimizeSpeed"
         x="102.009"
         y="45.702999"
         width="543.133"
         height="496.64099"
         preserveAspectRatio="none"
         id="image8098" />
    </g>
    <text
       id="text8105"
       font-size="19pt"
       y="111.72795"
       x="194.8309"
       style="font-size:9px;font-style:normal;font-variant:normal;font-weight:normal;font-stretch:normal;text-align:center;line-height:125%;writing-mode:lr-tb;text-anchor:middle;fill:#000000;font-family:Sans;-inkscape-font-specification:Sans"
       sodipodi:linespacing="125%">
      <tspan
         id="tspan8107"
         style="font-size:9px;font-style:normal;font-variant:normal;font-weight:normal;font-stretch:normal;text-align:center;line-height:125%;writing-mode:lr-tb;text-anchor:middle;font-family:Sans;-inkscape-font-specification:Sans">X (</tspan>
      <tspan
         id="tspan8109"
         style="font-size:9px;font-style:normal;font-variant:normal;font-weight:normal;font-stretch:normal;text-align:center;line-height:125%;writing-mode:lr-tb;text-anchor:middle;font-family:Sans;-inkscape-font-specification:Sans"></tspan>
      <tspan
         id="tspan8111"
         style="font-size:9px;font-style:normal;font-variant:normal;font-weight:normal;font-stretch:normal;text-align:center;line-height:125%;writing-mode:lr-tb;text-anchor:middle;font-family:Sans;-inkscape-font-specification:Sans">m)</tspan>
    </text>
    <text
       sodipodi:linespacing="125%"
       id="text8118"
       font-size="19pt"
       y="143.64548"
       x="-61.601471"
       style="font-size:9px;font-style:normal;font-variant:normal;font-weight:normal;font-stretch:normal;text-align:center;line-height:125%;writing-mode:lr-tb;text-anchor:middle;fill:#000000;font-family:Sans;-inkscape-font-specification:Sans"
       transform="matrix(0,-1,1,0,0,0)">
      <tspan
         style="font-size:9px;font-style:normal;font-variant:normal;font-weight:normal;font-stretch:normal;text-align:center;line-height:125%;writing-mode:lr-tb;text-anchor:middle;font-family:Sans;-inkscape-font-specification:Sans"
         id="tspan8120">Y (</tspan>
      <tspan
         style="font-size:9px;font-style:normal;font-variant:normal;font-weight:normal;font-stretch:normal;text-align:center;line-height:125%;writing-mode:lr-tb;text-anchor:middle;font-family:Sans;-inkscape-font-specification:Sans"
         id="tspan8122"></tspan>
      <tspan
         style="font-size:9px;font-style:normal;font-variant:normal;font-weight:normal;font-stretch:normal;text-align:center;line-height:125%;writing-mode:lr-tb;text-anchor:middle;font-family:Sans;-inkscape-font-specification:Sans"
         id="tspan8124">m)</tspan>
    </text>
    <g
       id="ID000005"
       transform="matrix(0.29764102,0,0,0.29764102,301.65601,181.67469)" />
    <g
       id="ID000006"
       transform="matrix(0.29764102,0,0,0.29764102,301.65601,181.67469)" />
    <g
       id="ID000007"
       transform="matrix(0.29764102,0,0,0.29764102,301.65601,181.67469)" />
    <polyline
       style="fill:none;stroke:#000000;stroke-width:0.50000000000000000pt;stroke-dasharray:none"
       points="104.725,542.344 104.725,536.912 "
       id="polyline8131"
       transform="matrix(0.1360481,0,0,0.1360481,143.8945,21.717305)" />
    <polyline
       style="fill:none;stroke:#000000;stroke-width:7.81335497;stroke-miterlimit:4;stroke-dasharray:none"
       points="239.150,542.344 239.150,536.912 "
       id="polyline8133"
       transform="matrix(0.1360481,0,0,0.1360481,143.8945,21.209072)" />
    <polyline
       style="fill:none;stroke:#000000;stroke-width:7.81335497;stroke-miterlimit:4;stroke-dasharray:none"
       points="373.576,542.344 373.576,536.912 "
       id="polyline8135"
       transform="matrix(0.1360481,0,0,0.1360481,143.8945,21.209072)" />
    <polyline
       style="fill:none;stroke:#000000;stroke-width:7.81335497;stroke-miterlimit:4;stroke-dasharray:none"
       points="508.001,542.344 508.001,536.912 "
       id="polyline8137"
       transform="matrix(0.1360481,0,0,0.1360481,143.8945,21.186975)" />
    <polyline
       style="fill:none;stroke:#000000;stroke-width:0.5pt;stroke-dasharray:none"
       points="642.427,542.344 642.427,536.912 "
       id="polyline8139"
       transform="matrix(0.1360481,0,0,0.1360481,143.8945,21.717305)" />
    <polyline
       style="fill:none;stroke:#000000;stroke-width:0.50000000000000000pt;stroke-dasharray:none"
       points="104.725,45.703 104.725,51.134 "
       id="polyline8143"
       transform="matrix(0.1360481,0,0,0.1360481,143.8945,21.717305)" />
    <polyline
       style="fill:none;stroke:#000000;stroke-width:7.81335497;stroke-miterlimit:4;stroke-dasharray:none"
       points="239.150,45.703 239.150,51.134 "
       id="polyline8145"
       transform="matrix(0.1360481,0,0,0.1360481,143.8945,22.248555)" />
    <polyline
       style="fill:none;stroke:#000000;stroke-width:7.81335497;stroke-miterlimit:4;stroke-dasharray:none"
       points="373.576,45.703 373.576,51.134 "
       id="polyline8147"
       transform="matrix(0.1360481,0,0,0.1360481,143.8945,22.247635)" />
    <polyline
       style="fill:none;stroke:#000000;stroke-width:7.81335497;stroke-miterlimit:4;stroke-dasharray:none"
       points="508.001,45.703 508.001,51.134 "
       id="polyline8149"
       transform="matrix(0.1360481,0,0,0.1360481,143.8945,22.225538)" />
    <polyline
       style="fill:none;stroke:#000000;stroke-width:0.5pt;stroke-dasharray:none"
       points="642.427,45.703 642.427,51.134 "
       id="polyline8151"
       transform="matrix(0.1360481,0,0,0.1360481,143.8945,21.717305)" />
    <text
       style="font-size:9px;font-style:normal;font-variant:normal;font-weight:normal;font-stretch:normal;text-align:center;line-height:125%;writing-mode:lr-tb;text-anchor:middle;fill:#000000;font-family:Sans;-inkscape-font-specification:Sans"
       x="157.80339"
       y="103.65903"
       font-size="19pt"
       id="text8159"
       sodipodi:linespacing="125%">0</text>
    <text
       style="font-size:9px;font-style:normal;font-variant:normal;font-weight:normal;font-stretch:normal;text-align:center;line-height:125%;writing-mode:lr-tb;text-anchor:middle;fill:#000000;font-family:Sans;-inkscape-font-specification:Sans"
       x="176.42601"
       y="103.54477"
       font-size="19pt"
       id="text8165"
       sodipodi:linespacing="125%">5</text>
    <text
       style="font-size:9px;font-style:normal;font-variant:normal;font-weight:normal;font-stretch:normal;text-align:center;line-height:125%;writing-mode:lr-tb;text-anchor:middle;fill:#000000;font-family:Sans;-inkscape-font-specification:Sans"
       x="194.44635"
       y="103.65903"
       font-size="19pt"
       id="text8171"
       sodipodi:linespacing="125%">10</text>
    <text
       style="font-size:9px;font-style:normal;font-variant:normal;font-weight:normal;font-stretch:normal;text-align:center;line-height:125%;writing-mode:lr-tb;text-anchor:middle;fill:#000000;font-family:Sans;-inkscape-font-specification:Sans"
       x="212.69945"
       y="103.65903"
       font-size="19pt"
       id="text8177"
       sodipodi:linespacing="125%">15</text>
    <text
       style="font-size:9px;font-style:normal;font-variant:normal;font-weight:normal;font-stretch:normal;text-align:center;line-height:125%;writing-mode:lr-tb;text-anchor:middle;fill:#000000;font-family:Sans;-inkscape-font-specification:Sans"
       x="231.75053"
       y="103.65903"
       font-size="19pt"
       id="text8183"
       sodipodi:linespacing="125%">20</text>
    <polyline
       style="fill:none;stroke:#000000;stroke-width:0.50000000000000000pt;stroke-dasharray:none"
       points="102.009,48.186 107.441,48.186 "
       id="polyline8185"
       transform="matrix(0.1360481,0,0,0.1360481,143.8945,21.717305)" />
    <polyline
       style="fill:none;stroke:#000000;stroke-width:7.81335497;stroke-miterlimit:4;stroke-dasharray:none"
       points="102.009,171.105 107.441,171.105 "
       id="polyline8187"
       transform="matrix(0.1360481,0,0,0.1360481,144.3919,21.717305)" />
    <polyline
       style="fill:none;stroke:#000000;stroke-width:7.81335497;stroke-miterlimit:4;stroke-dasharray:none"
       points="102.009,294.023 107.441,294.023 "
       id="polyline8189"
       transform="matrix(0.1360481,0,0,0.1360481,144.42483,21.717305)" />
    <polyline
       style="fill:none;stroke:#000000;stroke-width:7.81335497;stroke-miterlimit:4;stroke-dasharray:none"
       points="102.009,416.942 107.441,416.942 "
       id="polyline8191"
       transform="matrix(0.1360481,0,0,0.1360481,144.42483,21.717305)" />
    <polyline
       style="fill:none;stroke:#000000;stroke-width:0.50000000000000000pt;stroke-dasharray:none"
       points="102.009,539.861 107.441,539.861 "
       id="polyline8193"
       transform="matrix(0.1360481,0,0,0.1360481,143.8945,21.717305)" />
    <polyline
       style="fill:none;stroke:#000000;stroke-width:0.5pt;stroke-dasharray:none"
       points="645.142,48.186 639.711,48.186 "
       id="polyline8197"
       transform="matrix(0.1360481,0,0,0.1360481,143.8945,21.717305)" />
    <polyline
       style="fill:none;stroke:#000000;stroke-width:7.81335497;stroke-miterlimit:4;stroke-dasharray:none"
       points="645.142,171.105 639.711,171.105 "
       id="polyline8199"
       transform="matrix(0.1360481,0,0,0.1360481,143.40836,21.717305)" />
    <polyline
       style="fill:none;stroke:#000000;stroke-width:7.81335497;stroke-miterlimit:4;stroke-dasharray:none"
       points="645.142,294.023 639.711,294.023 "
       id="polyline8201"
       transform="matrix(0.1360481,0,0,0.1360481,143.38627,21.717305)" />
    <polyline
       style="fill:none;stroke:#000000;stroke-width:7.81335497;stroke-miterlimit:4;stroke-dasharray:none"
       points="645.142,416.942 639.711,416.942 "
       id="polyline8203"
       transform="matrix(0.1360481,0,0,0.1360481,143.36417,21.717305)" />
    <polyline
       style="fill:none;stroke:#000000;stroke-width:0.5pt;stroke-dasharray:none"
       points="645.142,539.861 639.711,539.861 "
       id="polyline8205"
       transform="matrix(0.1360481,0,0,0.1360481,143.8945,21.717305)" />
    <g
       id="g5763"
       style="stroke:#000000;stroke-opacity:1;stroke-width:0.3;stroke-miterlimit:4;stroke-dasharray:none">
      <polyline
         transform="matrix(0.1360481,0,0,0.1360481,143.8945,21.717305)"
         id="polyline8141"
         points="102.009,542.344 645.142,542.344 "
         style="fill:none;stroke:#000000;stroke-width:2.20510246;stroke-dasharray:none;stroke-miterlimit:4;stroke-opacity:1" />
      <polyline
         transform="matrix(0.1360481,0,0,0.1360481,143.8945,21.717305)"
         id="polyline8153"
         points="102.009,45.703 645.142,45.703 "
         style="fill:none;stroke:#000000;stroke-width:2.20510246;stroke-dasharray:none;stroke-miterlimit:4;stroke-opacity:1" />
      <polyline
         transform="matrix(0.1360481,0,0,0.1360481,143.8945,21.717305)"
         id="polyline8195"
         points="102.009,542.344 102.009,45.703 "
         style="fill:none;stroke:#000000;stroke-width:2.20510246;stroke-dasharray:none;stroke-miterlimit:4;stroke-opacity:1" />
      <polyline
         transform="matrix(0.1360481,0,0,0.1360481,143.8945,21.717305)"
         id="polyline8207"
         points="645.142,542.344 645.142,45.703 "
         style="fill:none;stroke:#000000;stroke-width:2.20510246;stroke-dasharray:none;stroke-miterlimit:4;stroke-opacity:1" />
    </g>
    <text
       style="font-size:9px;font-style:normal;font-variant:normal;font-weight:normal;font-stretch:normal;text-align:center;line-height:125%;writing-mode:lr-tb;text-anchor:middle;fill:#000000;font-family:Sans;-inkscape-font-specification:Sans"
       x="153.98274"
       y="31.114555"
       font-size="19pt"
       id="text8213"
       sodipodi:linespacing="125%">0</text>
    <text
       style="font-size:9px;font-style:normal;font-variant:normal;font-weight:normal;font-stretch:normal;text-align:center;line-height:125%;writing-mode:lr-tb;text-anchor:middle;fill:#000000;font-family:Sans;-inkscape-font-specification:Sans"
       x="153.91243"
       y="48.11813"
       font-size="19pt"
       id="text8219"
       sodipodi:linespacing="125%">5</text>
    <text
       style="font-size:9px;font-style:normal;font-variant:normal;font-weight:normal;font-stretch:normal;text-align:center;line-height:125%;writing-mode:lr-tb;text-anchor:middle;fill:#000000;font-family:Sans;-inkscape-font-specification:Sans"
       x="151.47786"
       y="64.898018"
       font-size="19pt"
       id="text8225"
       sodipodi:linespacing="125%">10</text>
    <text
       style="font-size:9px;font-style:normal;font-variant:normal;font-weight:normal;font-stretch:normal;text-align:center;line-height:125%;writing-mode:lr-tb;text-anchor:middle;fill:#000000;font-family:Sans;-inkscape-font-specification:Sans"
       x="151.40755"
       y="81.620918"
       font-size="19pt"
       id="text8231"
       sodipodi:linespacing="125%">15</text>
    <text
       style="font-size:9px;font-style:normal;font-variant:normal;font-weight:normal;font-stretch:normal;text-align:center;line-height:125%;writing-mode:lr-tb;text-anchor:middle;fill:#000000;font-family:Sans;-inkscape-font-specification:Sans"
       x="151.47786"
       y="98.681618"
       font-size="19pt"
       id="text8237"
       sodipodi:linespacing="125%">20</text>
    <polyline
       style="fill:none;stroke:#000000;stroke-width:0.50000000000000000pt;stroke-dasharray:none"
       points="102.009,542.344 102.009,537.377 "
       id="polyline8239"
       transform="matrix(0.1360481,0,0,0.1360481,143.8945,21.717305)" />
    <polyline
       style="fill:none;stroke:#000000;stroke-width:0.50000000000000000pt;stroke-dasharray:none"
       points="102.009,542.344 102.009,542.344 "
       id="polyline8241"
       transform="matrix(0.1360481,0,0,0.1360481,143.8945,21.717305)" />
    <polygon
       id="polygon8247"
       points="664.219,46.406 664.219,544.219 689.219,544.219 689.219,46.406 "
       style="fill:#ffffff;fill-opacity:1;stroke:none"
       transform="matrix(0.1360481,0,0,0.1360481,143.8945,21.717305)" />
    <polygon
       id="polygon8249"
       points="664.219,46.406 664.219,46.406 689.219,46.406 689.219,46.406 "
       style="fill:#ffffff;fill-opacity:1;stroke:none"
       transform="matrix(0.1360481,0,0,0.1360481,143.8945,21.717305)" />
    <polygon
       id="polygon8251"
       points="664.219,46.406 664.219,544.219 664.219,544.219 664.219,46.406 "
       style="fill:#ffffff;fill-opacity:1;stroke:none"
       transform="matrix(0.1360481,0,0,0.1360481,143.8945,21.717305)" />
    <text
       id="text8262"
       font-size="19pt"
       y="255.0424"
       x="-61.757156"
       style="font-size:9px;font-style:normal;font-variant:normal;font-weight:normal;font-stretch:normal;text-align:center;line-height:125%;writing-mode:lr-tb;text-anchor:middle;fill:#000000;font-family:Sans;-inkscape-font-specification:Sans"
       transform="matrix(0,-1,1,0,0,0)"
       sodipodi:linespacing="125%">Counts/ms</text>
    <image
       sodipodi:absref="C:\Users\carattino\Documents\Paper_Writing\KCN\Paper\Figures\01_Setup\scan002.png"
       xlink:href="scan002.png"
       style="image-rendering:optimizeSpeed"
       id="image8265"
       preserveAspectRatio="none"
       height="67.726509"
       width="3.4012024"
       y="28.030762"
       x="234.26024" />
    <polyline
       style="fill:none;stroke:#000000;stroke-width:2.60445173;stroke-dasharray:none;stroke-miterlimit:4"
       points="664.219,544.219 689.219,544.219 "
       id="polyline8269"
       transform="matrix(0.1360481,0,0,0.1360481,143.8945,21.717305)" />
    <polyline
       style="fill:none;stroke:#000000;stroke-width:0.5pt;stroke-dasharray:none"
       points="664.219,46.406 689.219,46.406 "
       id="polyline8271"
       transform="matrix(0.1360481,0,0,0.1360481,143.8945,21.717305)" />
    <polyline
       style="fill:none;stroke:#000000;stroke-width:2.60445173;stroke-dasharray:none;stroke-miterlimit:4"
       points="689.219,507.700 684.241,507.700 "
       id="polyline8273"
       transform="matrix(0.1360481,0,0,0.1360481,143.8945,21.717305)" />
    <polyline
       style="fill:none;stroke:#000000;stroke-width:2.60445173;stroke-dasharray:none;stroke-miterlimit:4"
       points="689.219,443.631 684.241,443.631 "
       id="polyline8275"
       transform="matrix(0.1360481,0,0,0.1360481,143.8945,21.717305)" />
    <polyline
       style="fill:none;stroke:#000000;stroke-width:2.60445173;stroke-dasharray:none;stroke-miterlimit:4"
       points="689.219,379.563 684.241,379.563 "
       id="polyline8277"
       transform="matrix(0.1360481,0,0,0.1360481,143.8945,21.717305)" />
    <polyline
       style="fill:none;stroke:#000000;stroke-width:2.60445173;stroke-dasharray:none;stroke-miterlimit:4"
       points="689.219,315.494 684.241,315.494 "
       id="polyline8279"
       transform="matrix(0.1360481,0,0,0.1360481,143.8945,21.717305)" />
    <polyline
       style="fill:none;stroke:#000000;stroke-width:2.60445173;stroke-dasharray:none;stroke-miterlimit:4"
       points="689.219,251.426 684.241,251.426 "
       id="polyline8281"
       transform="matrix(0.1360481,0,0,0.1360481,143.8945,21.717305)" />
    <polyline
       style="fill:none;stroke:#000000;stroke-width:2.60445173;stroke-dasharray:none;stroke-miterlimit:4"
       points="689.219,187.357 684.241,187.357 "
       id="polyline8283"
       transform="matrix(0.1360481,0,0,0.1360481,143.8945,21.717305)" />
    <polyline
       style="fill:none;stroke:#000000;stroke-width:2.60445173;stroke-dasharray:none;stroke-miterlimit:4"
       points="689.219,123.288 684.241,123.288 "
       id="polyline8285"
       transform="matrix(0.1360481,0,0,0.1360481,143.8945,21.717305)" />
    <polyline
       style="fill:none;stroke:#000000;stroke-width:2.60445173;stroke-dasharray:none;stroke-miterlimit:4"
       points="689.219,59.220 684.241,59.220 "
       id="polyline8287"
       transform="matrix(0.1360481,0,0,0.1360481,143.8945,21.717305)" />
    <polyline
       style="fill:none;stroke:#000000;stroke-width:2.60445173;stroke-dasharray:none;stroke-miterlimit:4"
       points="689.219,544.219 689.219,46.406 "
       id="polyline8289"
       transform="matrix(0.1360481,0,0,0.1360481,143.8945,21.717305)" />
    <polyline
       style="fill:none;stroke:#000000;stroke-width:2.60445173;stroke-dasharray:none;stroke-miterlimit:4"
       points="664.219,507.700 669.197,507.700 "
       id="polyline8291"
       transform="matrix(0.1360481,0,0,0.1360481,143.8945,21.717305)" />
    <polyline
       style="fill:none;stroke:#000000;stroke-width:2.60445173;stroke-dasharray:none;stroke-miterlimit:4"
       points="664.219,443.631 669.197,443.631 "
       id="polyline8293"
       transform="matrix(0.1360481,0,0,0.1360481,143.8945,21.717305)" />
    <polyline
       style="fill:none;stroke:#000000;stroke-width:2.60445173;stroke-dasharray:none;stroke-miterlimit:4"
       points="664.219,379.563 669.197,379.563 "
       id="polyline8295"
       transform="matrix(0.1360481,0,0,0.1360481,143.8945,21.717305)" />
    <polyline
       style="fill:none;stroke:#000000;stroke-width:2.60445173;stroke-dasharray:none;stroke-miterlimit:4"
       points="664.219,315.494 669.197,315.494 "
       id="polyline8297"
       transform="matrix(0.1360481,0,0,0.1360481,143.8945,21.717305)" />
    <polyline
       style="fill:none;stroke:#000000;stroke-width:2.60445173;stroke-dasharray:none;stroke-miterlimit:4"
       points="664.219,251.426 669.197,251.426 "
       id="polyline8299"
       transform="matrix(0.1360481,0,0,0.1360481,143.8945,21.717305)" />
    <polyline
       style="fill:none;stroke:#000000;stroke-width:2.60445173;stroke-dasharray:none;stroke-miterlimit:4"
       points="664.219,187.357 669.197,187.357 "
       id="polyline8301"
       transform="matrix(0.1360481,0,0,0.1360481,143.8945,21.717305)" />
    <polyline
       style="fill:none;stroke:#000000;stroke-width:2.60445173;stroke-dasharray:none;stroke-miterlimit:4"
       points="664.219,123.288 669.197,123.288 "
       id="polyline8303"
       transform="matrix(0.1360481,0,0,0.1360481,143.8945,21.717305)" />
    <polyline
       style="fill:none;stroke:#000000;stroke-width:2.60445173;stroke-dasharray:none;stroke-miterlimit:4"
       points="664.219,59.220 669.197,59.220 "
       id="polyline8305"
       transform="matrix(0.1360481,0,0,0.1360481,143.8945,21.717305)" />
    <polyline
       style="fill:none;stroke:#000000;stroke-width:2.60445173;stroke-dasharray:none;stroke-miterlimit:4"
       points="664.219,544.219 664.219,46.406 "
       id="polyline8307"
       transform="matrix(0.1360481,0,0,0.1360481,143.8945,21.717305)" />
    <text
       style="font-size:9px;font-style:normal;font-variant:normal;font-weight:normal;font-stretch:normal;text-align:center;line-height:125%;writing-mode:lr-tb;text-anchor:middle;fill:#000000;font-family:Sans;-inkscape-font-specification:Sans"
       x="241.39127"
       y="94.0233"
       font-size="19pt"
       id="text8313"
       sodipodi:linespacing="125%">2</text>
    <text
       style="font-size:9px;font-style:normal;font-variant:normal;font-weight:normal;font-stretch:normal;text-align:center;line-height:125%;writing-mode:lr-tb;text-anchor:middle;fill:#000000;font-family:Sans;-inkscape-font-specification:Sans"
       x="241.31656"
       y="76.535576"
       font-size="19pt"
       id="text8325"
       sodipodi:linespacing="125%">6</text>
    <text
       style="font-size:9px;font-style:normal;font-variant:normal;font-weight:normal;font-stretch:normal;text-align:center;line-height:125%;writing-mode:lr-tb;text-anchor:middle;fill:#000000;font-family:Sans;-inkscape-font-specification:Sans"
       x="243.17984"
       y="59.102779"
       font-size="19pt"
       id="text8337"
       sodipodi:linespacing="125%">10</text>
    <text
       style="font-size:9px;font-style:normal;font-variant:normal;font-weight:normal;font-stretch:normal;text-align:center;line-height:125%;writing-mode:lr-tb;text-anchor:middle;fill:#000000;font-family:Sans;-inkscape-font-specification:Sans"
       x="243.17984"
       y="41.724777"
       font-size="19pt"
       id="text8349"
       sodipodi:linespacing="125%">14</text>
    <polyline
       style="fill:none;stroke:#000000;stroke-width:0.5pt;stroke-dasharray:none"
       points="664.219,544.219 664.219,539.241 "
       id="polyline8357"
       transform="matrix(0.1360481,0,0,0.1360481,143.8945,21.717305)" />
    <polyline
       style="fill:none;stroke:#000000;stroke-width:0.5pt;stroke-dasharray:none"
       points="664.219,544.219 664.219,544.219 "
       id="polyline8359"
       transform="matrix(0.1360481,0,0,0.1360481,143.8945,21.717305)" />
  </g>
</svg>
